<?xml version="1.0" encoding="UTF-8" standalone="no"?>
<svg
   xmlns:dc="http://purl.org/dc/elements/1.1/"
   xmlns:cc="http://creativecommons.org/ns#"
   xmlns:rdf="http://www.w3.org/1999/02/22-rdf-syntax-ns#"
   xmlns:svg="http://www.w3.org/2000/svg"
   xmlns="http://www.w3.org/2000/svg"
   viewBox="0 0 988.59998 404.20001"
   height="404.20001"
   width="988.59998"
   xml:space="preserve"
   id="svg2"
   version="1.1"><metadata
     id="metadata8"><rdf:RDF><cc:Work
         rdf:about=""><dc:format>image/svg+xml</dc:format><dc:type
           rdf:resource="http://purl.org/dc/dcmitype/StillImage" /></cc:Work></rdf:RDF></metadata><defs
     id="defs6"><clipPath
       id="clipPath32"
       clipPathUnits="userSpaceOnUse"><path
         id="path30"
         d="M 2579.99,1537.57 C 2303.68,1297.44 2142.38,1064.24 2141.13,1062.45 3249.5,559.98 4465.15,440.148 4851.94,447.93 l 44.23,31.922 c 0,0 -1385.86,146.707 -2316.18,1057.718" /></clipPath><clipPath
       id="clipPath58"
       clipPathUnits="userSpaceOnUse"><path
         id="path56"
         d="m 1296.7,1545.48 c 475.36,309.37 905,454.38 905,454.38 5.06,-7.66 10.15,-15.23 15.25,-22.76 -193.06,292.16 -332.63,638.69 -403.08,1054.41 L 200.289,3031.4 C 442.926,2241.7 1005.54,1685.32 1678.04,1296.54 l 24.29,-19.26 5.84,4.35 c -117.45,68.53 -255.72,155.33 -411.47,263.85" /></clipPath></defs><g
     transform="matrix(1.3333333,0,0,-1.3333333,0,404.2)"
     id="g10"><g
       transform="scale(0.1)"
       id="g12"><path
         id="path14"
         style="fill:#ffffff;fill-opacity:1;fill-rule:nonzero;stroke:none"
         d="m 4268.72,1841.46 h -231.75 l -251.06,-206 -175.1,206 h -204.72 l 257.5,-305.33 -397.83,-321.88 h 231.74 l 261.37,208.76 176.38,-208.76 h 204.72 l -260.08,308.08 388.83,319.13" /><path
         id="path16"
         style="fill:#ffffff;fill-opacity:1;fill-rule:nonzero;stroke:none"
         d="m 5049.48,1841.46 h -750.61 l -20.6,-104.84 h 278.1 l -103,-522.37 h 186.69 l 103.01,522.37 h 285.82 l 20.59,104.84" /><path
         id="path18"
         style="fill:#ffffff;fill-opacity:1;fill-rule:evenodd;stroke:none"
         d="m 5313.18,1736.62 h 91.42 c 92.7,0 146.78,-30.35 146.78,-80.02 0,-45.97 -52.8,-91.04 -178.97,-91.04 h -92.7 z m -166.08,104.84 -122.31,-627.21 h 186.68 l 48.93,253.83 h 39.91 c 91.42,0 112.01,-13.8 186.69,-126.91 l 83.68,-126.92 h 206.01 l -135.19,199.57 c -24.46,34.95 -45.06,58.86 -92.7,73.57 v 1.84 c 133.9,17.47 195.7,87.37 195.7,163.7 0,77.25 -73.39,188.53 -296.12,188.53 H 5147.1" /><path
         id="path20"
         style="fill:#ffffff;fill-opacity:1;fill-rule:evenodd;stroke:none"
         d="m 6246.92,1718.22 h 2.58 l 46.35,-277.74 h -203.43 z m 128.75,131.51 H 6177.4 l -430.03,-635.48 h 206.01 l 84.97,137.03 h 272.95 l 27.04,-137.03 h 191.84 l -154.51,635.48" /><path
         id="path22"
         style="fill:#ffffff;fill-opacity:1;fill-rule:nonzero;stroke:none"
         d="m 7414.47,1826.74 c -87.55,15.63 -160.93,22.99 -238.18,22.99 -338.61,0 -572.94,-146.22 -572.94,-356.82 0,-171.06 172.52,-286.94 427.45,-286.94 104.29,0 200.85,15.64 309,49.67 l 27.04,139.79 c -126.18,-51.51 -218.88,-73.58 -319.3,-73.58 -154.5,0 -251.06,65.3 -251.06,168.3 0,97.48 92.69,243.71 374.65,243.71 77.26,0 145.49,-8.28 212.44,-22.99 l 30.9,115.87" /><path
         id="path24"
         style="fill:#ffffff;fill-opacity:1;fill-rule:nonzero;stroke:none"
         d="M 0,0 C 0,0 1685.02,1.21094 1684.8,0.191406 1765.23,420.141 1928.48,770.469 2140.68,1062.51 c -8.35,3.15 -332.77,126.79 -843.9,482.92 C 717.191,1175.89 232.629,675.051 0,0 Z m 4857.02,2531.67 c -385.8,7.44 -1553,-94.6 -2663.26,-534.56 5.21,1.83 7.94,2.75 7.94,2.75 176.41,-266.75 375.07,-458.33 378.58,-461.71 966.6,836.15 2322.98,961.5 2322.98,961.5 l -46.24,32.02" /><g
         id="g26"><g
           clip-path="url(#clipPath32)"
           id="g28"><path
             id="path34"
             style="fill:none;stroke:#ffffff;stroke-width:64.58300018;stroke-linecap:butt;stroke-linejoin:miter;stroke-miterlimit:3.86369991;stroke-dasharray:none;stroke-opacity:1"
             d="M 6938.94,1492.54 H 2010.14" /><path
             id="path36"
             style="fill:none;stroke:#ffffff;stroke-width:64.58300018;stroke-linecap:butt;stroke-linejoin:miter;stroke-miterlimit:3.86369991;stroke-dasharray:none;stroke-opacity:1"
             d="M 6938.74,1348.92 H 2009.94" /><path
             id="path38"
             style="fill:none;stroke:#ffffff;stroke-width:64.58300018;stroke-linecap:butt;stroke-linejoin:miter;stroke-miterlimit:3.86369991;stroke-dasharray:none;stroke-opacity:1"
             d="M 6938.54,1205.58 H 2009.74" /><path
             id="path40"
             style="fill:none;stroke:#ffffff;stroke-width:64.58300018;stroke-linecap:butt;stroke-linejoin:miter;stroke-miterlimit:3.86369991;stroke-dasharray:none;stroke-opacity:1"
             d="M 6938.35,1062.25 H 2009.55" /><path
             id="path42"
             style="fill:none;stroke:#ffffff;stroke-width:64.58300018;stroke-linecap:butt;stroke-linejoin:miter;stroke-miterlimit:3.86369991;stroke-dasharray:none;stroke-opacity:1"
             d="M 6938.15,918.922 H 2009.35" /><path
             id="path44"
             style="fill:none;stroke:#ffffff;stroke-width:64.58300018;stroke-linecap:butt;stroke-linejoin:miter;stroke-miterlimit:3.86369991;stroke-dasharray:none;stroke-opacity:1"
             d="M 6937.96,775.582 H 2009.16" /><path
             id="path46"
             style="fill:none;stroke:#ffffff;stroke-width:64.58300018;stroke-linecap:butt;stroke-linejoin:miter;stroke-miterlimit:3.86369991;stroke-dasharray:none;stroke-opacity:1"
             d="M 6937.76,632.25 H 2008.96" /><path
             id="path48"
             style="fill:none;stroke:#ffffff;stroke-width:64.58300018;stroke-linecap:butt;stroke-linejoin:miter;stroke-miterlimit:3.86369991;stroke-dasharray:none;stroke-opacity:1"
             d="M 6937.56,488.922 H 2008.76" /><path
             id="path50"
             style="fill:none;stroke:#ffffff;stroke-width:60;stroke-linecap:butt;stroke-linejoin:miter;stroke-miterlimit:4;stroke-dasharray:none;stroke-opacity:1"
             d="m 2074,1528.78 h 888.15" /></g></g><g
         id="g52"><g
           clip-path="url(#clipPath58)"
           id="g54"><path
             id="path60"
             style="fill:none;stroke:#ffffff;stroke-width:64.58300018;stroke-linecap:butt;stroke-linejoin:miter;stroke-miterlimit:3.86369991;stroke-dasharray:none;stroke-opacity:1"
             d="M 4497.48,2997.21 H -431.32" /><path
             id="path62"
             style="fill:none;stroke:#ffffff;stroke-width:64.58300018;stroke-linecap:butt;stroke-linejoin:miter;stroke-miterlimit:3.86369991;stroke-dasharray:none;stroke-opacity:1"
             d="M 4497.29,2853.88 H -431.516" /><path
             id="path64"
             style="fill:none;stroke:#ffffff;stroke-width:64.58300018;stroke-linecap:butt;stroke-linejoin:miter;stroke-miterlimit:3.86369991;stroke-dasharray:none;stroke-opacity:1"
             d="M 4497.09,2710.54 H -431.711" /><path
             id="path66"
             style="fill:none;stroke:#ffffff;stroke-width:64.58300018;stroke-linecap:butt;stroke-linejoin:miter;stroke-miterlimit:3.86369991;stroke-dasharray:none;stroke-opacity:1"
             d="M 4496.89,2567.21 H -431.906" /><path
             id="path68"
             style="fill:none;stroke:#ffffff;stroke-width:64.58300018;stroke-linecap:butt;stroke-linejoin:miter;stroke-miterlimit:3.86369991;stroke-dasharray:none;stroke-opacity:1"
             d="M 4496.7,2423.88 H -432.105" /><path
             id="path70"
             style="fill:none;stroke:#ffffff;stroke-width:64.58300018;stroke-linecap:butt;stroke-linejoin:miter;stroke-miterlimit:3.86369991;stroke-dasharray:none;stroke-opacity:1"
             d="M 4496.5,2280.54 H -432.301" /><path
             id="path72"
             style="fill:none;stroke:#ffffff;stroke-width:64.58300018;stroke-linecap:butt;stroke-linejoin:miter;stroke-miterlimit:3.86369991;stroke-dasharray:none;stroke-opacity:1"
             d="M 4496.31,2137.21 H -432.496" /><path
             id="path74"
             style="fill:none;stroke:#ffffff;stroke-width:64.58300018;stroke-linecap:butt;stroke-linejoin:miter;stroke-miterlimit:3.86369991;stroke-dasharray:none;stroke-opacity:1"
             d="M 4496.11,1993.87 H -432.691" /><path
             id="path76"
             style="fill:none;stroke:#ffffff;stroke-width:64.58300018;stroke-linecap:butt;stroke-linejoin:miter;stroke-miterlimit:3.86369991;stroke-dasharray:none;stroke-opacity:1"
             d="M 4495.92,1850.54 H -432.887" /><path
             id="path78"
             style="fill:none;stroke:#ffffff;stroke-width:64.58300018;stroke-linecap:butt;stroke-linejoin:miter;stroke-miterlimit:3.86369991;stroke-dasharray:none;stroke-opacity:1"
             d="M 4495.72,1707.2 H -433.082" /><path
             id="path80"
             style="fill:none;stroke:#ffffff;stroke-width:64.58300018;stroke-linecap:butt;stroke-linejoin:miter;stroke-miterlimit:3.86369991;stroke-dasharray:none;stroke-opacity:1"
             d="M 4495.53,1563.87 H -433.277" /><path
             id="path82"
             style="fill:none;stroke:#ffffff;stroke-width:64.58300018;stroke-linecap:butt;stroke-linejoin:miter;stroke-miterlimit:3.86369991;stroke-dasharray:none;stroke-opacity:1"
             d="M 4495.33,1420.54 H -433.473" /><path
             id="path84"
             style="fill:none;stroke:#ffffff;stroke-width:64.58300018;stroke-linecap:butt;stroke-linejoin:miter;stroke-miterlimit:3.86369991;stroke-dasharray:none;stroke-opacity:1"
             d="M 4495.14,1277.2 H -433.668" /></g></g></g></g></svg>